<svg id="レイヤー_1" data-name="レイヤー 1" xmlns="http://www.w3.org/2000/svg" width="198.93" height="402.22" viewBox="0 0 198.93 402.22">
  <title>temp_iphone_x_xs</title>
  <path d="M169.42.5H29.5a29,29,0,0,0-29,29V372.72c0,.64,0,1.28.07,1.92l0,.36a29,29,0,0,0,28.9,26.72H169.43A29,29,0,0,0,198.33,375c0-.13,0-.24,0-.36,0-.64.07-1.28.07-1.92V29.5A29,29,0,0,0,169.42.5ZM44.91,69.3a12,12,0,0,1-12,12H31a12,12,0,0,1-12-12V31.45a12,12,0,0,1,12-12h1.91a12,12,0,0,1,12,12Z" style="fill: #fff;stroke: #040000;stroke-miterlimit: 10"/>
  <rect x="19.06" y="19.16" width="25.85" height="61.78" rx="11.97" style="fill: #040000"/>
</svg>
